<mxfile host="Electron" modified="2024-11-22T02:21:21.818Z" agent="Mozilla/5.0 (Windows NT 10.0; Win64; x64) AppleWebKit/537.36 (KHTML, like Gecko) draw.io/22.1.21 Chrome/120.0.6099.109 Electron/28.1.0 Safari/537.36" etag="VCEaHZvRpFDzEfsSTs7l" version="22.1.21" type="device">
  <diagram id="C5RBs43oDa-KdzZeNtuy" name="Page-1">
    <mxGraphModel dx="1843" dy="887" grid="1" gridSize="10" guides="1" tooltips="1" connect="1" arrows="1" fold="1" page="1" pageScale="1" pageWidth="827" pageHeight="1169" math="0" shadow="0">
      <root>
        <mxCell id="WIyWlLk6GJQsqaUBKTNV-0" />
        <mxCell id="WIyWlLk6GJQsqaUBKTNV-1" parent="WIyWlLk6GJQsqaUBKTNV-0" />
        <mxCell id="Rnb7luS3JhMZpL2JjWww-24" value="" style="strokeWidth=2;html=1;shape=mxgraph.flowchart.start_2;whiteSpace=wrap;" vertex="1" parent="WIyWlLk6GJQsqaUBKTNV-1">
          <mxGeometry x="210" y="10" width="50" height="50" as="geometry" />
        </mxCell>
        <mxCell id="Rnb7luS3JhMZpL2JjWww-78" style="edgeStyle=orthogonalEdgeStyle;rounded=0;orthogonalLoop=1;jettySize=auto;html=1;" edge="1" parent="WIyWlLk6GJQsqaUBKTNV-1" source="Rnb7luS3JhMZpL2JjWww-39" target="Rnb7luS3JhMZpL2JjWww-54">
          <mxGeometry relative="1" as="geometry" />
        </mxCell>
        <mxCell id="Rnb7luS3JhMZpL2JjWww-39" value="Danh mục sản phẩm" style="rounded=1;whiteSpace=wrap;html=1;fontSize=12;glass=0;strokeWidth=1;shadow=0;" vertex="1" parent="WIyWlLk6GJQsqaUBKTNV-1">
          <mxGeometry x="175" y="90" width="120" height="40" as="geometry" />
        </mxCell>
        <mxCell id="Rnb7luS3JhMZpL2JjWww-79" style="edgeStyle=orthogonalEdgeStyle;rounded=0;orthogonalLoop=1;jettySize=auto;html=1;entryX=0.5;entryY=0;entryDx=0;entryDy=0;" edge="1" parent="WIyWlLk6GJQsqaUBKTNV-1" source="Rnb7luS3JhMZpL2JjWww-54" target="Rnb7luS3JhMZpL2JjWww-55">
          <mxGeometry relative="1" as="geometry" />
        </mxCell>
        <mxCell id="Rnb7luS3JhMZpL2JjWww-54" value="Chọn Danh mục" style="rounded=1;whiteSpace=wrap;html=1;fontSize=12;glass=0;strokeWidth=1;shadow=0;" vertex="1" parent="WIyWlLk6GJQsqaUBKTNV-1">
          <mxGeometry x="175" y="170" width="120" height="40" as="geometry" />
        </mxCell>
        <mxCell id="Rnb7luS3JhMZpL2JjWww-80" style="edgeStyle=orthogonalEdgeStyle;rounded=0;orthogonalLoop=1;jettySize=auto;html=1;entryX=0.5;entryY=0;entryDx=0;entryDy=0;" edge="1" parent="WIyWlLk6GJQsqaUBKTNV-1" source="Rnb7luS3JhMZpL2JjWww-55" target="Rnb7luS3JhMZpL2JjWww-56">
          <mxGeometry relative="1" as="geometry" />
        </mxCell>
        <mxCell id="Rnb7luS3JhMZpL2JjWww-55" value="Thêm/Cập nhật: Danh mục" style="rounded=1;whiteSpace=wrap;html=1;fontSize=12;glass=0;strokeWidth=1;shadow=0;" vertex="1" parent="WIyWlLk6GJQsqaUBKTNV-1">
          <mxGeometry x="175" y="240" width="120" height="40" as="geometry" />
        </mxCell>
        <mxCell id="Rnb7luS3JhMZpL2JjWww-77" style="edgeStyle=orthogonalEdgeStyle;rounded=0;orthogonalLoop=1;jettySize=auto;html=1;" edge="1" parent="WIyWlLk6GJQsqaUBKTNV-1" source="Rnb7luS3JhMZpL2JjWww-56" target="Rnb7luS3JhMZpL2JjWww-57">
          <mxGeometry relative="1" as="geometry" />
        </mxCell>
        <mxCell id="Rnb7luS3JhMZpL2JjWww-56" value="Nhập dữ liệu" style="rounded=1;whiteSpace=wrap;html=1;fontSize=12;glass=0;strokeWidth=1;shadow=0;" vertex="1" parent="WIyWlLk6GJQsqaUBKTNV-1">
          <mxGeometry x="175" y="310" width="120" height="40" as="geometry" />
        </mxCell>
        <mxCell id="Rnb7luS3JhMZpL2JjWww-66" style="edgeStyle=orthogonalEdgeStyle;rounded=0;orthogonalLoop=1;jettySize=auto;html=1;entryX=0.5;entryY=0;entryDx=0;entryDy=0;" edge="1" parent="WIyWlLk6GJQsqaUBKTNV-1" source="Rnb7luS3JhMZpL2JjWww-57" target="Rnb7luS3JhMZpL2JjWww-58">
          <mxGeometry relative="1" as="geometry" />
        </mxCell>
        <mxCell id="Rnb7luS3JhMZpL2JjWww-67" value="Sai" style="edgeLabel;html=1;align=center;verticalAlign=middle;resizable=0;points=[];" vertex="1" connectable="0" parent="Rnb7luS3JhMZpL2JjWww-66">
          <mxGeometry x="-0.16" relative="1" as="geometry">
            <mxPoint as="offset" />
          </mxGeometry>
        </mxCell>
        <mxCell id="Rnb7luS3JhMZpL2JjWww-57" value="Kiểm tra" style="strokeWidth=2;html=1;shape=mxgraph.flowchart.decision;whiteSpace=wrap;" vertex="1" parent="WIyWlLk6GJQsqaUBKTNV-1">
          <mxGeometry x="205" y="380" width="60" height="60" as="geometry" />
        </mxCell>
        <mxCell id="Rnb7luS3JhMZpL2JjWww-76" style="edgeStyle=orthogonalEdgeStyle;rounded=0;orthogonalLoop=1;jettySize=auto;html=1;exitX=1;exitY=0.5;exitDx=0;exitDy=0;entryX=1;entryY=0.25;entryDx=0;entryDy=0;" edge="1" parent="WIyWlLk6GJQsqaUBKTNV-1" source="Rnb7luS3JhMZpL2JjWww-58" target="Rnb7luS3JhMZpL2JjWww-56">
          <mxGeometry relative="1" as="geometry" />
        </mxCell>
        <mxCell id="Rnb7luS3JhMZpL2JjWww-58" value="Thông báo lỗi" style="rounded=1;whiteSpace=wrap;html=1;fontSize=12;glass=0;strokeWidth=1;shadow=0;" vertex="1" parent="WIyWlLk6GJQsqaUBKTNV-1">
          <mxGeometry x="360" y="450" width="120" height="40" as="geometry" />
        </mxCell>
        <mxCell id="Rnb7luS3JhMZpL2JjWww-59" value="Lưu DM" style="rounded=1;whiteSpace=wrap;html=1;fontSize=12;glass=0;strokeWidth=1;shadow=0;" vertex="1" parent="WIyWlLk6GJQsqaUBKTNV-1">
          <mxGeometry x="60" y="470" width="120" height="40" as="geometry" />
        </mxCell>
        <mxCell id="Rnb7luS3JhMZpL2JjWww-70" style="edgeStyle=orthogonalEdgeStyle;rounded=0;orthogonalLoop=1;jettySize=auto;html=1;entryX=0.25;entryY=0;entryDx=0;entryDy=0;exitX=0;exitY=0.5;exitDx=0;exitDy=0;exitPerimeter=0;" edge="1" parent="WIyWlLk6GJQsqaUBKTNV-1" source="Rnb7luS3JhMZpL2JjWww-60" target="Rnb7luS3JhMZpL2JjWww-62">
          <mxGeometry relative="1" as="geometry" />
        </mxCell>
        <mxCell id="Rnb7luS3JhMZpL2JjWww-71" value="Đúng" style="edgeLabel;html=1;align=center;verticalAlign=middle;resizable=0;points=[];" vertex="1" connectable="0" parent="Rnb7luS3JhMZpL2JjWww-70">
          <mxGeometry x="-0.552" y="3" relative="1" as="geometry">
            <mxPoint as="offset" />
          </mxGeometry>
        </mxCell>
        <mxCell id="Rnb7luS3JhMZpL2JjWww-72" style="edgeStyle=orthogonalEdgeStyle;rounded=0;orthogonalLoop=1;jettySize=auto;html=1;" edge="1" parent="WIyWlLk6GJQsqaUBKTNV-1" source="Rnb7luS3JhMZpL2JjWww-60" target="Rnb7luS3JhMZpL2JjWww-61">
          <mxGeometry relative="1" as="geometry" />
        </mxCell>
        <mxCell id="Rnb7luS3JhMZpL2JjWww-73" value="sai" style="edgeLabel;html=1;align=center;verticalAlign=middle;resizable=0;points=[];" vertex="1" connectable="0" parent="Rnb7luS3JhMZpL2JjWww-72">
          <mxGeometry x="-0.16" y="2" relative="1" as="geometry">
            <mxPoint as="offset" />
          </mxGeometry>
        </mxCell>
        <mxCell id="Rnb7luS3JhMZpL2JjWww-60" value="Kiểm tra" style="strokeWidth=2;html=1;shape=mxgraph.flowchart.decision;whiteSpace=wrap;" vertex="1" parent="WIyWlLk6GJQsqaUBKTNV-1">
          <mxGeometry x="100" y="530" width="60" height="60" as="geometry" />
        </mxCell>
        <mxCell id="Rnb7luS3JhMZpL2JjWww-61" value="Thông báo lỗi" style="rounded=1;whiteSpace=wrap;html=1;fontSize=12;glass=0;strokeWidth=1;shadow=0;" vertex="1" parent="WIyWlLk6GJQsqaUBKTNV-1">
          <mxGeometry x="190" y="630" width="120" height="40" as="geometry" />
        </mxCell>
        <mxCell id="Rnb7luS3JhMZpL2JjWww-62" value="Thông báo thành công" style="rounded=1;whiteSpace=wrap;html=1;fontSize=12;glass=0;strokeWidth=1;shadow=0;" vertex="1" parent="WIyWlLk6GJQsqaUBKTNV-1">
          <mxGeometry x="10" y="620" width="120" height="40" as="geometry" />
        </mxCell>
        <mxCell id="Rnb7luS3JhMZpL2JjWww-63" value="" style="strokeWidth=2;html=1;shape=mxgraph.flowchart.start_2;whiteSpace=wrap;" vertex="1" parent="WIyWlLk6GJQsqaUBKTNV-1">
          <mxGeometry x="394" y="780" width="40" height="40" as="geometry" />
        </mxCell>
        <mxCell id="Rnb7luS3JhMZpL2JjWww-68" style="edgeStyle=orthogonalEdgeStyle;rounded=0;orthogonalLoop=1;jettySize=auto;html=1;entryX=0.327;entryY=0.03;entryDx=0;entryDy=0;entryPerimeter=0;" edge="1" parent="WIyWlLk6GJQsqaUBKTNV-1" source="Rnb7luS3JhMZpL2JjWww-57" target="Rnb7luS3JhMZpL2JjWww-59">
          <mxGeometry relative="1" as="geometry" />
        </mxCell>
        <mxCell id="Rnb7luS3JhMZpL2JjWww-69" value="Đúng" style="edgeLabel;html=1;align=center;verticalAlign=middle;resizable=0;points=[];" vertex="1" connectable="0" parent="Rnb7luS3JhMZpL2JjWww-68">
          <mxGeometry x="-0.2711" y="-1" relative="1" as="geometry">
            <mxPoint as="offset" />
          </mxGeometry>
        </mxCell>
        <mxCell id="Rnb7luS3JhMZpL2JjWww-74" style="edgeStyle=orthogonalEdgeStyle;rounded=0;orthogonalLoop=1;jettySize=auto;html=1;entryX=0;entryY=0.5;entryDx=0;entryDy=0;entryPerimeter=0;exitX=0.25;exitY=1;exitDx=0;exitDy=0;" edge="1" parent="WIyWlLk6GJQsqaUBKTNV-1" source="Rnb7luS3JhMZpL2JjWww-62" target="Rnb7luS3JhMZpL2JjWww-63">
          <mxGeometry relative="1" as="geometry" />
        </mxCell>
        <mxCell id="Rnb7luS3JhMZpL2JjWww-75" style="edgeStyle=orthogonalEdgeStyle;rounded=0;orthogonalLoop=1;jettySize=auto;html=1;entryX=0.145;entryY=0.145;entryDx=0;entryDy=0;entryPerimeter=0;exitX=0.347;exitY=0.99;exitDx=0;exitDy=0;exitPerimeter=0;" edge="1" parent="WIyWlLk6GJQsqaUBKTNV-1" source="Rnb7luS3JhMZpL2JjWww-61" target="Rnb7luS3JhMZpL2JjWww-63">
          <mxGeometry relative="1" as="geometry" />
        </mxCell>
      </root>
    </mxGraphModel>
  </diagram>
</mxfile>
